<?xml version="1.0" encoding="UTF-8" standalone="no"?><!DOCTYPE svg PUBLIC "-//W3C//DTD SVG 1.1//EN" "http://www.w3.org/Graphics/SVG/1.1/DTD/svg11.dtd"><svg width="100%" height="100%" viewBox="0 0 159 32" version="1.1" xmlns="http://www.w3.org/2000/svg" xmlns:xlink="http://www.w3.org/1999/xlink" xml:space="preserve" xmlns:serif="http://www.serif.com/" style="fill-rule:evenodd;clip-rule:evenodd;stroke-linejoin:round;stroke-miterlimit:2;"><g><path d="M158.174,12.248c0,-6.76 -5.488,-12.248 -12.248,-12.248l-133.677,0c-6.76,0 -12.248,5.488 -12.248,12.248l0,6.909c0,6.76 5.488,12.248 12.248,12.248l133.677,0c6.76,0 12.248,-5.488 12.248,-12.248l0,-6.909Z"/><g><g><g id="Text"><path d="M45.195,12.29c0,-0.268 0.074,-0.477 0.223,-0.626c0.149,-0.149 0.357,-0.223 0.626,-0.223c0.134,0 0.253,0.018 0.357,0.056c0.104,0.037 0.193,0.093 0.268,0.167c0.075,0.075 0.136,0.167 0.184,0.279c0.049,0.112 0.084,0.242 0.106,0.391l0.1,0.77l0.033,0c0.224,-0.335 0.503,-0.632 0.838,-0.893c0.141,-0.112 0.305,-0.22 0.491,-0.324c0.186,-0.104 0.391,-0.197 0.614,-0.28c0.224,-0.082 0.468,-0.149 0.732,-0.201c0.265,-0.052 0.549,-0.078 0.855,-0.078c0.648,0 1.232,0.099 1.754,0.296c0.521,0.198 0.963,0.49 1.323,0.877c0.361,0.387 0.639,0.867 0.832,1.441c0.193,0.574 0.29,1.237 0.29,1.989l0,6.009c0,0.291 -0.084,0.516 -0.251,0.676c-0.168,0.161 -0.423,0.24 -0.765,0.24c-0.343,0 -0.6,-0.08 -0.771,-0.24c-0.172,-0.16 -0.257,-0.385 -0.257,-0.676l0,-5.719c0,-0.558 -0.058,-1.038 -0.173,-1.441c-0.116,-0.402 -0.287,-0.735 -0.514,-1c-0.227,-0.264 -0.503,-0.458 -0.827,-0.581c-0.324,-0.122 -0.694,-0.184 -1.111,-0.184c-0.246,0 -0.475,0.028 -0.687,0.083c-0.212,0.056 -0.409,0.128 -0.592,0.218c-0.183,0.089 -0.35,0.192 -0.503,0.308c-0.153,0.115 -0.289,0.232 -0.408,0.352c-0.291,0.283 -0.533,0.604 -0.726,0.961l0,7.004c0,0.291 -0.086,0.516 -0.257,0.676c-0.171,0.161 -0.428,0.24 -0.771,0.24c-0.343,0 -0.598,-0.08 -0.765,-0.24c-0.167,-0.16 -0.251,-0.385 -0.251,-0.676l0,-9.65Z" style="fill:#ffb800;fill-rule:nonzero;"/><path d="M64.765,18.456c-0.171,-0.052 -0.368,-0.097 -0.59,-0.134c-0.186,-0.03 -0.405,-0.06 -0.658,-0.09c-0.253,-0.03 -0.535,-0.045 -0.847,-0.045c-0.936,0 -1.631,0.127 -2.084,0.38c-0.453,0.253 -0.68,0.63 -0.68,1.128c0,0.238 0.046,0.46 0.139,0.664c0.093,0.205 0.228,0.384 0.407,0.536c0.178,0.153 0.398,0.274 0.657,0.363c0.26,0.09 0.561,0.134 0.903,0.134c0.431,0 0.817,-0.08 1.159,-0.24c0.341,-0.16 0.631,-0.337 0.869,-0.53c0.275,-0.223 0.516,-0.477 0.724,-0.76l0,-1.407Zm0,-2.838c0,-0.462 -0.049,-0.858 -0.145,-1.189c-0.097,-0.332 -0.251,-0.601 -0.463,-0.81c-0.212,-0.208 -0.488,-0.361 -0.827,-0.458c-0.339,-0.097 -0.746,-0.145 -1.223,-0.145c-0.447,0 -0.83,0.035 -1.151,0.106c-0.32,0.071 -0.598,0.149 -0.832,0.235c-0.234,0.086 -0.432,0.162 -0.592,0.229c-0.16,0.067 -0.307,0.101 -0.441,0.101c-0.209,0 -0.376,-0.063 -0.503,-0.19c-0.127,-0.126 -0.19,-0.305 -0.19,-0.536c0,-0.119 0.019,-0.225 0.056,-0.318c0.037,-0.093 0.1,-0.184 0.19,-0.274c0.104,-0.097 0.275,-0.205 0.514,-0.324c0.238,-0.119 0.529,-0.231 0.871,-0.335c0.343,-0.104 0.728,-0.192 1.156,-0.262c0.428,-0.071 0.88,-0.106 1.357,-0.106c1.422,0 2.489,0.332 3.201,0.994c0.711,0.663 1.067,1.619 1.067,2.871l0,4.133c0,0.492 0.013,0.89 0.039,1.195c0.026,0.305 0.056,0.557 0.089,0.754c0.033,0.197 0.065,0.354 0.095,0.469c0.03,0.116 0.045,0.229 0.045,0.341c0,0.119 -0.021,0.225 -0.062,0.318c-0.041,0.094 -0.1,0.176 -0.179,0.246c-0.078,0.071 -0.171,0.127 -0.279,0.168c-0.108,0.041 -0.229,0.061 -0.363,0.061c-0.171,0 -0.324,-0.036 -0.458,-0.106c-0.134,-0.071 -0.252,-0.168 -0.352,-0.29c-0.101,-0.123 -0.182,-0.274 -0.246,-0.452c-0.063,-0.179 -0.117,-0.38 -0.162,-0.603l-0.033,0c-0.246,0.29 -0.533,0.551 -0.86,0.782c-0.283,0.194 -0.637,0.371 -1.061,0.531c-0.424,0.16 -0.913,0.24 -1.464,0.24c-0.596,0 -1.126,-0.08 -1.592,-0.24c-0.465,-0.16 -0.858,-0.384 -1.178,-0.67c-0.32,-0.287 -0.564,-0.627 -0.732,-1.022c-0.167,-0.395 -0.251,-0.819 -0.251,-1.273c0,-0.499 0.106,-0.938 0.318,-1.318c0.212,-0.38 0.52,-0.699 0.922,-0.955c0.402,-0.257 0.888,-0.45 1.458,-0.581c0.57,-0.13 1.216,-0.196 1.938,-0.196c0.365,0 0.692,0.013 0.983,0.039c0.29,0.026 0.532,0.058 0.726,0.095c0.238,0.03 0.443,0.07 0.614,0.123l0,-1.374Z" style="fill:#ffb800;fill-rule:nonzero;"/><path d="M69.791,13.15c-0.223,0 -0.402,-0.069 -0.536,-0.206c-0.134,-0.138 -0.201,-0.337 -0.201,-0.598c0,-0.26 0.067,-0.461 0.201,-0.603c0.134,-0.141 0.313,-0.212 0.536,-0.212l1.229,0l0,-1.184c0,-0.678 0.091,-1.277 0.274,-1.799c0.183,-0.521 0.445,-0.96 0.788,-1.318c0.342,-0.357 0.756,-0.631 1.24,-0.821c0.484,-0.19 1.028,-0.285 1.631,-0.285c0.425,0 0.785,0.053 1.084,0.157c0.298,0.105 0.506,0.216 0.625,0.335c0.09,0.089 0.155,0.186 0.196,0.29c0.041,0.105 0.061,0.228 0.061,0.369c0,0.119 -0.017,0.223 -0.05,0.313c-0.033,0.089 -0.082,0.167 -0.145,0.234c-0.063,0.067 -0.136,0.117 -0.218,0.151c-0.082,0.034 -0.172,0.05 -0.268,0.05c-0.089,0 -0.177,-0.013 -0.263,-0.039c-0.086,-0.026 -0.179,-0.054 -0.279,-0.084c-0.101,-0.03 -0.218,-0.059 -0.352,-0.09c-0.134,-0.029 -0.294,-0.044 -0.48,-0.044c-0.566,0 -1.007,0.188 -1.324,0.564c-0.317,0.376 -0.474,0.988 -0.474,1.837l0,1.363l1.977,0c0.223,0 0.402,0.071 0.536,0.212c0.134,0.142 0.201,0.343 0.201,0.603c0,0.261 -0.067,0.46 -0.201,0.598c-0.134,0.138 -0.313,0.206 -0.536,0.206l-1.977,0l0,8.791c0,0.291 -0.084,0.516 -0.252,0.676c-0.167,0.16 -0.423,0.24 -0.765,0.24c-0.343,0 -0.6,-0.08 -0.771,-0.24c-0.171,-0.16 -0.257,-0.385 -0.257,-0.676l0,-8.791l-1.229,0Z" style="fill:#ffb800;fill-rule:nonzero;"/><path d="M77.789,12.379c0,-0.29 0.084,-0.515 0.251,-0.676c0.167,-0.16 0.426,-0.24 0.776,-0.24c0.343,0 0.598,0.08 0.765,0.24c0.167,0.16 0.251,0.385 0.251,0.676l0,5.719c0,1.117 0.227,1.93 0.681,2.441c0.454,0.51 1.076,0.765 1.865,0.765c0.246,0 0.475,-0.026 0.687,-0.078c0.212,-0.052 0.408,-0.123 0.586,-0.212c0.179,-0.09 0.344,-0.192 0.497,-0.307c0.153,-0.116 0.292,-0.236 0.419,-0.363c0.283,-0.275 0.525,-0.596 0.726,-0.961l0,-7.003c0,-0.29 0.084,-0.515 0.251,-0.676c0.168,-0.16 0.427,-0.24 0.777,-0.24c0.35,0 0.607,0.08 0.769,0.24c0.164,0.16 0.247,0.385 0.247,0.676l0,9.651c0,0.276 -0.075,0.488 -0.223,0.637c-0.15,0.148 -0.358,0.223 -0.627,0.223c-0.132,0 -0.253,-0.021 -0.356,-0.061c-0.105,-0.041 -0.196,-0.099 -0.269,-0.173c-0.075,-0.074 -0.134,-0.168 -0.178,-0.279c-0.045,-0.111 -0.083,-0.242 -0.112,-0.391l-0.101,-0.771l-0.033,0c-0.223,0.335 -0.503,0.633 -0.838,0.894c-0.149,0.112 -0.315,0.222 -0.497,0.329c-0.182,0.108 -0.385,0.203 -0.609,0.285c-0.223,0.082 -0.467,0.147 -0.732,0.196c-0.264,0.048 -0.549,0.073 -0.854,0.073c-0.633,0 -1.203,-0.097 -1.709,-0.291c-0.507,-0.194 -0.939,-0.486 -1.296,-0.877c-0.357,-0.391 -0.633,-0.871 -0.826,-1.441c-0.194,-0.57 -0.291,-1.23 -0.291,-1.982l0,-6.021Z" style="fill:#ffb800;fill-rule:nonzero;"/><path d="M91.226,12.29c0,-0.268 0.075,-0.477 0.223,-0.626c0.148,-0.149 0.358,-0.223 0.627,-0.223c0.132,0 0.253,0.018 0.356,0.056c0.105,0.037 0.194,0.093 0.269,0.167c0.075,0.075 0.136,0.167 0.184,0.279c0.049,0.112 0.085,0.242 0.107,0.391l0.101,0.77l0.034,0c0.223,-0.335 0.502,-0.632 0.838,-0.893c0.14,-0.112 0.304,-0.22 0.49,-0.324c0.186,-0.104 0.391,-0.197 0.615,-0.28c0.223,-0.082 0.467,-0.149 0.731,-0.201c0.265,-0.052 0.55,-0.078 0.854,-0.078c0.648,0 1.234,0.099 1.753,0.296c0.522,0.198 0.963,0.49 1.324,0.877c0.362,0.387 0.639,0.867 0.832,1.441c0.194,0.574 0.291,1.237 0.291,1.989l0,6.009c0,0.291 -0.085,0.516 -0.251,0.676c-0.168,0.161 -0.423,0.24 -0.765,0.24c-0.344,0 -0.601,-0.08 -0.771,-0.24c-0.172,-0.16 -0.257,-0.385 -0.257,-0.676l0,-5.719c0,-0.558 -0.057,-1.038 -0.174,-1.441c-0.115,-0.402 -0.287,-0.735 -0.514,-1c-0.227,-0.264 -0.502,-0.458 -0.826,-0.581c-0.324,-0.122 -0.694,-0.184 -1.111,-0.184c-0.245,0 -0.474,0.028 -0.688,0.083c-0.212,0.056 -0.409,0.128 -0.591,0.218c-0.182,0.089 -0.35,0.192 -0.502,0.308c-0.154,0.115 -0.289,0.232 -0.409,0.352c-0.289,0.283 -0.532,0.604 -0.725,0.961l0,7.004c0,0.291 -0.085,0.516 -0.257,0.676c-0.172,0.161 -0.427,0.24 -0.771,0.24c-0.342,0 -0.597,-0.08 -0.765,-0.24c-0.166,-0.16 -0.251,-0.385 -0.251,-0.676l0,-9.65Z" style="fill:#ffb800;fill-rule:nonzero;"/><path d="M110.797,18.456c-0.172,-0.052 -0.368,-0.097 -0.591,-0.134c-0.186,-0.03 -0.405,-0.06 -0.658,-0.09c-0.253,-0.03 -0.534,-0.045 -0.846,-0.045c-0.937,0 -1.631,0.127 -2.084,0.38c-0.455,0.253 -0.68,0.63 -0.68,1.128c0,0.238 0.045,0.46 0.138,0.664c0.093,0.205 0.229,0.384 0.407,0.536c0.178,0.153 0.397,0.274 0.658,0.363c0.259,0.09 0.559,0.134 0.901,0.134c0.431,0 0.818,-0.08 1.16,-0.24c0.342,-0.16 0.631,-0.337 0.868,-0.53c0.275,-0.223 0.518,-0.477 0.725,-0.76l0,-1.407Zm0,-2.838c0,-0.462 -0.049,-0.858 -0.146,-1.189c-0.097,-0.332 -0.251,-0.601 -0.463,-0.81c-0.212,-0.208 -0.488,-0.361 -0.826,-0.458c-0.34,-0.097 -0.747,-0.145 -1.224,-0.145c-0.447,0 -0.83,0.035 -1.151,0.106c-0.32,0.071 -0.597,0.149 -0.832,0.235c-0.235,0.086 -0.431,0.162 -0.591,0.229c-0.162,0.067 -0.308,0.101 -0.443,0.101c-0.208,0 -0.376,-0.063 -0.502,-0.19c-0.127,-0.126 -0.19,-0.305 -0.19,-0.536c0,-0.119 0.018,-0.225 0.055,-0.318c0.038,-0.093 0.101,-0.184 0.19,-0.274c0.105,-0.097 0.277,-0.205 0.514,-0.324c0.239,-0.119 0.53,-0.231 0.872,-0.335c0.342,-0.104 0.727,-0.192 1.156,-0.262c0.427,-0.071 0.88,-0.106 1.356,-0.106c1.423,0 2.489,0.332 3.201,0.994c0.712,0.663 1.067,1.619 1.067,2.871l0,4.133c0,0.492 0.012,0.89 0.04,1.195c0.026,0.305 0.055,0.557 0.089,0.754c0.034,0.197 0.065,0.354 0.095,0.469c0.03,0.116 0.043,0.229 0.043,0.341c0,0.119 -0.02,0.225 -0.061,0.318c-0.04,0.094 -0.099,0.176 -0.178,0.246c-0.077,0.071 -0.172,0.127 -0.279,0.168c-0.109,0.041 -0.229,0.061 -0.364,0.061c-0.172,0 -0.324,-0.036 -0.459,-0.106c-0.132,-0.071 -0.251,-0.168 -0.352,-0.29c-0.099,-0.123 -0.182,-0.274 -0.245,-0.452c-0.063,-0.179 -0.117,-0.38 -0.162,-0.603l-0.034,0c-0.245,0.29 -0.532,0.551 -0.86,0.782c-0.283,0.194 -0.637,0.371 -1.062,0.531c-0.423,0.16 -0.911,0.24 -1.463,0.24c-0.595,0 -1.127,-0.08 -1.591,-0.24c-0.467,-0.16 -0.858,-0.384 -1.178,-0.67c-0.32,-0.287 -0.563,-0.627 -0.731,-1.022c-0.168,-0.395 -0.251,-0.819 -0.251,-1.273c0,-0.499 0.105,-0.938 0.318,-1.318c0.212,-0.38 0.518,-0.699 0.921,-0.955c0.401,-0.257 0.888,-0.45 1.457,-0.581c0.569,-0.13 1.216,-0.196 1.939,-0.196c0.364,0 0.692,0.013 0.982,0.039c0.291,0.026 0.532,0.058 0.725,0.095c0.239,0.03 0.443,0.07 0.615,0.123l0,-1.374Z" style="fill:#ffb800;fill-rule:nonzero;"/></g><g id="Symbol"><path d="M37.431,8.604c1.309,2.21 1.842,4.599 1.786,7.082c-0.035,1.544 -1.033,2.746 -2.052,3.831c-1.991,2.117 -4.299,3.826 -6.916,5.094c-0.324,0.157 -0.83,0.225 -1.138,0.084c-1.762,-0.805 -5.902,-4.305 -7.13,-6.361c4.321,-2.085 10.993,-5.256 15.45,-9.73" style="fill:#ffcc03;"/><path d="M20.374,17.637c0,0 -0.166,-0.26 -0.262,-0.474c0,0 -3.934,2.318 -5.86,4.172c-0.001,0.001 -0.001,0.003 -0.003,0.004c-0.925,0.877 -0.644,1.983 0.725,2.466c2.597,0.916 8.355,0.535 10.768,-0.374c-1.755,-1.369 -4.299,-3.994 -5.369,-5.794" style="fill:#762c16;"/><path d="M13.113,21.37c-1.309,-2.21 -1.842,-4.599 -1.786,-7.082c0.035,-1.544 1.032,-2.746 2.052,-3.831c1.99,-2.117 4.298,-3.826 6.915,-5.094c0.324,-0.157 0.83,-0.225 1.138,-0.084c1.762,0.805 5.902,4.305 7.13,6.361c-4.321,2.085 -10.993,5.256 -15.45,9.73" style="fill:#c25627;"/><path d="M30.169,12.338c0,0 0.165,0.26 0.262,0.473c0,0 3.934,-2.318 5.86,-4.172c0.001,-0.001 0.001,-0.003 0.002,-0.004c0.925,-0.877 0.643,-1.983 -0.725,-2.466c-2.597,-0.916 -8.356,-0.535 -10.769,0.375c1.755,1.369 4.299,3.994 5.369,5.794" style="fill:#8a6b29;"/></g></g></g><path d="M116.463,7.961l12.23,0l0,3.165l-4.279,0l0,12.027l-3.672,0l0,-12.027l-4.279,0l0,-3.165Z" style="fill:#fff;fill-rule:nonzero;"/><path d="M129.048,7.961l3.95,0l3.849,11.268l3.849,-11.268l3.95,0l-5.799,15.193l-4.001,0l-5.799,-15.193Z" style="fill:#fff;fill-rule:nonzero;"/></g></svg>